<?xml version="1.0" encoding="UTF-8" standalone="no"?>
<svg
   xmlns:dc="http://purl.org/dc/elements/1.1/"
   xmlns:cc="http://creativecommons.org/ns#"
   xmlns:rdf="http://www.w3.org/1999/02/22-rdf-syntax-ns#"
   xmlns:svg="http://www.w3.org/2000/svg"
   xmlns="http://www.w3.org/2000/svg"
   xmlns:sodipodi="http://sodipodi.sourceforge.net/DTD/sodipodi-0.dtd"
   xmlns:inkscape="http://www.inkscape.org/namespaces/inkscape"
   width="210mm"
   height="297mm"
   viewBox="0 0 210 297"
   version="1.1"
   id="svg8"
   inkscape:version="1.0.1 (3bc2e813f5, 2020-09-07)"
   sodipodi:docname="TTGO_EPaper_Display_Enclosure_Laser_Cutter_1mm.svg">
  <defs
     id="defs2" />
  <sodipodi:namedview
     id="base"
     pagecolor="#ffffff"
     bordercolor="#666666"
     borderopacity="1.0"
     inkscape:pageopacity="0.0"
     inkscape:pageshadow="2"
     inkscape:zoom="0.77508166"
     inkscape:cx="35.82257"
     inkscape:cy="622.69444"
     inkscape:document-units="mm"
     inkscape:current-layer="layer1"
     showgrid="false"
     inkscape:window-width="1920"
     inkscape:window-height="1017"
     inkscape:window-x="-8"
     inkscape:window-y="-8"
     inkscape:window-maximized="1"
     inkscape:snap-object-midpoints="true"
     inkscape:snap-midpoints="true"
     inkscape:document-rotation="0" />
  <metadata
     id="metadata5">
    <rdf:RDF>
      <cc:Work
         rdf:about="">
        <dc:format>image/svg+xml</dc:format>
        <dc:type
           rdf:resource="http://purl.org/dc/dcmitype/StillImage" />
        <dc:title></dc:title>
      </cc:Work>
    </rdf:RDF>
  </metadata>
  <g
     inkscape:label="Layer 1"
     inkscape:groupmode="layer"
     id="layer1">
    <path
       id="rect815-7-8-0-6-1-3"
       style="opacity:1;fill:none;fill-opacity:1;fill-rule:evenodd;stroke:#ff00ff;stroke-width:0.2;stroke-linecap:butt;stroke-linejoin:round;stroke-miterlimit:4;stroke-dasharray:none;stroke-dashoffset:0;stroke-opacity:1"
       d="m 131.49957,3.3873226 v 2.80035 39.7872314 h 2.79983 v 0.01288 h 64.50718 a 6.7418971,6.8272372 0 0 1 5.09272,-5.15679 V 7.6842026 a 3.5603447,3.9443766 0 0 1 -0.44649,0.0315 3.5603447,3.9443766 0 0 1 -3.5605,-3.94446 3.5603447,3.9443766 0 0 1 0.0176,-0.38396 z m 21.16047,2.62155 a 2.4499998,2.45 0 0 1 2.44998,2.44998 2.4499998,2.45 0 0 1 -0.0579,0.52916 h 42.58552 a 0.90000008,0.90000008 0 0 1 -0.1881,-0.55035 0.90000008,0.90000008 0 0 1 0.89969,-0.89969 0.90000008,0.90000008 0 0 1 0.9002,0.89969 0.90000008,0.90000008 0 0 1 -0.18913,0.55035 h 2.03915 V 40.187662 h -2.03812 a 0.90000008,0.90000008 0 0 1 0.1881,0.550352 0.90000008,0.90000008 0 0 1 -0.9002,0.899689 0.90000008,0.90000008 0 0 1 -0.89969,-0.899689 0.90000008,0.90000008 0 0 1 0.18914,-0.550352 H 183.2995 v 2.800342 h -9.79992 v -2.800342 h -35.73839 a 0.90000008,0.90000008 0 0 1 0.1881,0.550352 0.90000008,0.90000008 0 0 1 -0.89969,0.899689 0.90000008,0.90000008 0 0 1 -0.9002,-0.899689 0.90000008,0.90000008 0 0 1 0.18913,-0.550352 h -2.03915 V 8.9880126 h 2.03812 a 0.9,0.9 0 0 1 -0.1881,-0.55035 0.9,0.9 0 0 1 0.8816,-0.89969 0.9,0.9 0 0 1 0.0186,0 0.9,0.9 0 0 1 0.89968,0.89969 0.9,0.9 0 0 1 -0.18913,0.55035 h 12.50777 a 2.4499998,2.45 0 0 1 -0.0579,-0.52916 2.4499998,2.45 0 0 1 2.44997,-2.44998 z" />
    <path
       id="rect815-7-8-0-6-1-3-0"
       style="opacity:1;fill:none;fill-opacity:1;fill-rule:evenodd;stroke:#ff00ff;stroke-width:0.2;stroke-linecap:butt;stroke-linejoin:round;stroke-miterlimit:4;stroke-dasharray:none;stroke-dashoffset:0;stroke-opacity:1"
       d="m 131.49957,45.974904 v 2.80035 39.787232 h 2.79983 v 0.0129 h 64.50718 a 6.7418971,6.8272372 0 0 1 5.09272,-5.15679 V 50.271784 a 3.5603447,3.9443766 0 0 1 -0.44649,0.0315 3.5603447,3.9443766 0 0 1 -3.5605,-3.944459 3.5603447,3.9443766 0 0 1 0.0176,-0.38396 z m 21.16047,2.62155 a 2.4499998,2.45 0 0 1 2.44998,2.44998 2.4499998,2.45 0 0 1 -0.0579,0.52916 h 42.58552 a 0.90000008,0.90000008 0 0 1 -0.1881,-0.55035 0.90000008,0.90000008 0 0 1 0.89969,-0.89969 0.90000008,0.90000008 0 0 1 0.9002,0.89969 0.90000008,0.90000008 0 0 1 -0.18913,0.55035 h 2.03915 v 31.199652 h -2.03812 a 0.90000008,0.90000008 0 0 1 0.1881,0.55035 0.90000008,0.90000008 0 0 1 -0.9002,0.89969 0.90000008,0.90000008 0 0 1 -0.89969,-0.89969 0.90000008,0.90000008 0 0 1 0.18914,-0.55035 H 183.2995 v 2.80034 h -9.79992 v -2.80034 h -35.73839 a 0.90000008,0.90000008 0 0 1 0.1881,0.55035 0.90000008,0.90000008 0 0 1 -0.89969,0.89969 0.90000008,0.90000008 0 0 1 -0.9002,-0.89969 0.90000008,0.90000008 0 0 1 0.18913,-0.55035 h -2.03915 V 51.575594 h 2.03812 a 0.9,0.9 0 0 1 -0.1881,-0.55035 0.9,0.9 0 0 1 0.8816,-0.89969 0.9,0.9 0 0 1 0.0186,0 0.9,0.9 0 0 1 0.89968,0.89969 0.9,0.9 0 0 1 -0.18913,0.55035 h 12.50777 a 2.4499998,2.45 0 0 1 -0.0579,-0.52916 2.4499998,2.45 0 0 1 2.44997,-2.44998 z" />
    <path
       id="rect815-7-8-0-6-1-3-2"
       style="opacity:1;fill:none;fill-opacity:1;fill-rule:evenodd;stroke:#ff00ff;stroke-width:0.2;stroke-linecap:butt;stroke-linejoin:round;stroke-miterlimit:4;stroke-dasharray:none;stroke-dashoffset:0;stroke-opacity:1"
       d="m 131.49957,88.562486 v 2.80035 39.787224 h 2.79983 v 0.0129 h 64.50718 a 6.7418971,6.8272372 0 0 1 5.09272,-5.15678 V 92.859371 a 3.5603447,3.9443766 0 0 1 -0.44649,0.0315 3.5603447,3.9443766 0 0 1 -3.5605,-3.944455 3.5603447,3.9443766 0 0 1 0.0176,-0.38396 z m 21.16046,2.62155 a 2.4499998,2.45 0 0 1 2.44998,2.449975 2.4499998,2.45 0 0 1 -0.0579,0.52916 h 42.58553 a 0.90000008,0.90000008 0 0 1 -0.1881,-0.55035 0.90000008,0.90000008 0 0 1 0.89969,-0.899685 0.90000008,0.90000008 0 0 1 0.9002,0.899685 0.90000008,0.90000008 0 0 1 -0.18913,0.55035 h 2.03915 v 31.199649 h -2.03812 a 0.90000008,0.90000008 0 0 1 0.1881,0.55036 0.90000008,0.90000008 0 0 1 -0.9002,0.89969 0.90000008,0.90000008 0 0 1 -0.89969,-0.89969 0.90000008,0.90000008 0 0 1 0.18914,-0.55036 H 183.2995 v 2.80034 h -9.79992 v -2.80034 h -35.7384 a 0.90000008,0.90000008 0 0 1 0.1881,0.55036 0.90000008,0.90000008 0 0 1 -0.89968,0.89969 0.90000008,0.90000008 0 0 1 -0.90021,-0.89969 0.90000008,0.90000008 0 0 1 0.18914,-0.55036 h -2.03915 V 94.163171 h 2.03812 a 0.9,0.9 0 0 1 -0.18811,-0.55034 0.9,0.9 0 0 1 0.8816,-0.899695 0.9,0.9 0 0 1 0.0186,0 0.9,0.9 0 0 1 0.89969,0.899695 0.9,0.9 0 0 1 -0.18914,0.55034 h 12.50777 a 2.4499998,2.45 0 0 1 -0.0579,-0.52916 2.4499998,2.45 0 0 1 2.44998,-2.449975 z" />
    <path
       id="rect815-7-8-0-6-1-3-8"
       style="opacity:1;fill:none;fill-opacity:1;fill-rule:evenodd;stroke:#ff00ff;stroke-width:0.2;stroke-linecap:butt;stroke-linejoin:round;stroke-miterlimit:4;stroke-dasharray:none;stroke-dashoffset:0;stroke-opacity:1"
       d="m 131.49957,131.15006 v 2.80035 39.78723 h 2.79983 v 0.0129 h 64.50718 a 6.7418971,6.8272372 0 0 1 5.09272,-5.15679 v -33.14681 a 3.5603447,3.9443766 0 0 1 -0.44649,0.0315 3.5603447,3.9443766 0 0 1 -3.5605,-3.94446 3.5603447,3.9443766 0 0 1 0.0176,-0.38396 z m 21.16047,2.62155 a 2.4499998,2.45 0 0 1 2.44998,2.44998 2.4499998,2.45 0 0 1 -0.0579,0.52916 h 42.58552 a 0.90000008,0.90000008 0 0 1 -0.1881,-0.55035 0.90000008,0.90000008 0 0 1 0.89969,-0.89969 0.90000008,0.90000008 0 0 1 0.9002,0.89969 0.90000008,0.90000008 0 0 1 -0.18913,0.55035 h 2.03915 v 31.19965 h -2.03812 a 0.90000008,0.90000008 0 0 1 0.1881,0.55035 0.90000008,0.90000008 0 0 1 -0.9002,0.89969 0.90000008,0.90000008 0 0 1 -0.89969,-0.89969 0.90000008,0.90000008 0 0 1 0.18914,-0.55035 H 183.2995 v 2.80035 h -9.79992 v -2.80035 h -35.73839 a 0.90000008,0.90000008 0 0 1 0.1881,0.55035 0.90000008,0.90000008 0 0 1 -0.89969,0.89969 0.90000008,0.90000008 0 0 1 -0.9002,-0.89969 0.90000008,0.90000008 0 0 1 0.18913,-0.55035 h -2.03915 v -31.19965 h 2.03812 a 0.9,0.9 0 0 1 -0.1881,-0.55035 0.9,0.9 0 0 1 0.8816,-0.89969 0.9,0.9 0 0 1 0.0186,0 0.9,0.9 0 0 1 0.89968,0.89969 0.9,0.9 0 0 1 -0.18913,0.55035 h 12.50777 a 2.4499998,2.45 0 0 1 -0.0579,-0.52916 2.4499998,2.45 0 0 1 2.44997,-2.44998 z" />
    <path
       id="rect815-7-8-0-6-1-3-4"
       style="opacity:1;fill:none;fill-opacity:1;fill-rule:evenodd;stroke:#ff00ff;stroke-width:0.2;stroke-linecap:butt;stroke-linejoin:round;stroke-miterlimit:4;stroke-dasharray:none;stroke-dashoffset:0;stroke-opacity:1"
       d="m 131.49957,173.73764 v 2.80035 39.78723 h 2.79983 v 0.0129 h 64.50718 a 6.7418971,6.8272372 0 0 1 5.09272,-5.15679 v -33.14679 a 3.5603447,3.9443766 0 0 1 -0.44649,0.0315 3.5603447,3.9443766 0 0 1 -3.5605,-3.94445 3.5603447,3.9443766 0 0 1 0.0176,-0.38396 z m 21.16047,2.62156 a 2.4499998,2.45 0 0 1 2.44998,2.44997 2.4499998,2.45 0 0 1 -0.0579,0.52916 h 42.58552 a 0.90000008,0.90000008 0 0 1 -0.1881,-0.55035 0.90000008,0.90000008 0 0 1 0.89969,-0.89969 0.90000008,0.90000008 0 0 1 0.9002,0.89969 0.90000008,0.90000008 0 0 1 -0.18913,0.55035 h 2.03915 v 31.19965 h -2.03812 a 0.90000008,0.90000008 0 0 1 0.1881,0.55035 0.90000008,0.90000008 0 0 1 -0.9002,0.89969 0.90000008,0.90000008 0 0 1 -0.89969,-0.89969 0.90000008,0.90000008 0 0 1 0.18914,-0.55035 H 183.2995 v 2.80034 h -9.79992 v -2.80034 h -35.73839 a 0.90000008,0.90000008 0 0 1 0.1881,0.55035 0.90000008,0.90000008 0 0 1 -0.89969,0.89969 0.90000008,0.90000008 0 0 1 -0.9002,-0.89969 0.90000008,0.90000008 0 0 1 0.18913,-0.55035 h -2.03915 v -31.19965 h 2.03812 a 0.9,0.9 0 0 1 -0.1881,-0.55035 0.9,0.9 0 0 1 0.8816,-0.89969 0.9,0.9 0 0 1 0.0186,0 0.9,0.9 0 0 1 0.89968,0.89969 0.9,0.9 0 0 1 -0.18913,0.55035 h 12.50777 a 2.4499998,2.45 0 0 1 -0.0579,-0.52916 2.4499998,2.45 0 0 1 2.44997,-2.44997 z" />
    <path
       id="rect815-7-8-0-6-1-3-1-3"
       style="opacity:1;fill:none;fill-opacity:1;fill-rule:evenodd;stroke:#ff00ff;stroke-width:0.2;stroke-linecap:butt;stroke-linejoin:round;stroke-miterlimit:4;stroke-dasharray:none;stroke-dashoffset:0;stroke-opacity:1"
       d="m 46.316867,148.1868 h -2.80035 -39.78723 v 2.79983 h -0.0129 v 64.50718 a 6.8272372,6.7418971 0 0 1 5.15679,5.09272 h 33.1468 a 3.9443766,3.5603447 0 0 1 -0.0315,-0.44649 3.9443766,3.5603447 0 0 1 3.94447,-3.5605 3.9443766,3.5603447 0 0 1 0.38396,0.0176 z m -2.62155,21.16047 a 2.45,2.4499998 0 0 1 -2.44997,2.44998 2.45,2.4499998 0 0 1 -0.52917,-0.0579 v 42.58552 a 0.90000008,0.90000008 0 0 1 0.55035,-0.1881 0.90000008,0.90000008 0 0 1 0.89969,0.89969 0.90000008,0.90000008 0 0 1 -0.89969,0.9002 0.90000008,0.90000008 0 0 1 -0.55035,-0.18913 v 2.03915 H 9.516527 v -2.03812 a 0.90000008,0.90000008 0 0 1 -0.55035,0.1881 0.90000008,0.90000008 0 0 1 -0.89969,-0.9002 0.90000008,0.90000008 0 0 1 0.89969,-0.89969 0.90000008,0.90000008 0 0 1 0.55035,0.18914 v -14.33916 h -2.80034 v -9.79992 h 2.80034 v -35.73839 a 0.90000008,0.90000008 0 0 1 -0.55035,0.1881 0.90000008,0.90000008 0 0 1 -0.89969,-0.89969 0.90000008,0.90000008 0 0 1 0.89969,-0.9002 0.90000008,0.90000008 0 0 1 0.55035,0.18913 v -2.03915 h 31.19965 v 2.03812 a 0.9,0.9 0 0 1 0.55035,-0.1881 0.9,0.9 0 0 1 0.89969,0.8816 0.9,0.9 0 0 1 0,0.0186 0.9,0.9 0 0 1 -0.89969,0.89968 0.9,0.9 0 0 1 -0.55035,-0.18913 v 12.50776 a 2.45,2.4499998 0 0 1 0.52917,-0.0579 2.45,2.4499998 0 0 1 2.44997,2.44998 z" />
    <path
       id="rect815-7-8-0-6-1-3-1-7"
       style="opacity:1;fill:none;fill-opacity:1;fill-rule:evenodd;stroke:#ff00ff;stroke-width:0.2;stroke-linecap:butt;stroke-linejoin:round;stroke-miterlimit:4;stroke-dasharray:none;stroke-dashoffset:0;stroke-opacity:1"
       d="m 46.329277,75.787052 h -2.80035 -39.78723 v 2.799831 h -0.0129 v 64.507197 a 6.8272372,6.7418971 0 0 1 5.15679,5.09272 h 33.1468 a 3.9443766,3.5603447 0 0 1 -0.0315,-0.44649 3.9443766,3.5603447 0 0 1 3.94446,-3.5605 3.9443766,3.5603447 0 0 1 0.38396,0.0176 z m -2.62155,21.16047 a 2.45,2.4499998 0 0 1 -2.44998,2.44998 2.45,2.4499998 0 0 1 -0.52916,-0.0579 v 42.585538 a 0.90000008,0.90000008 0 0 1 0.55035,-0.1881 0.90000008,0.90000008 0 0 1 0.89969,0.89969 0.90000008,0.90000008 0 0 1 -0.89969,0.9002 0.90000008,0.90000008 0 0 1 -0.55035,-0.18913 v 2.03915 H 9.528937 v -2.03812 a 0.90000008,0.90000008 0 0 1 -0.55035,0.1881 0.90000008,0.90000008 0 0 1 -0.89969,-0.9002 0.90000008,0.90000008 0 0 1 0.89969,-0.89969 0.90000008,0.90000008 0 0 1 0.55035,0.18914 v -14.33916 h -2.80034 v -9.79992 h 2.80034 V 82.048693 a 0.90000008,0.90000008 0 0 1 -0.55035,0.188099 0.90000008,0.90000008 0 0 1 -0.89969,-0.899689 0.90000008,0.90000008 0 0 1 0.89969,-0.900201 0.90000008,0.90000008 0 0 1 0.55035,0.18913 v -2.039149 h 31.19965 v 2.038119 a 0.9,0.9 0 0 1 0.55035,-0.1881 0.9,0.9 0 0 1 0.89969,0.881601 0.9,0.9 0 0 1 0,0.0186 0.9,0.9 0 0 1 -0.89969,0.89968 0.9,0.9 0 0 1 -0.55035,-0.18913 v 12.507759 a 2.45,2.4499998 0 0 1 0.52916,-0.0579 2.45,2.4499998 0 0 1 2.44998,2.44998 z" />
    <path
       id="rect815-7-8-0-6-1-3-1-6"
       style="opacity:1;fill:none;fill-opacity:1;fill-rule:evenodd;stroke:#ff00ff;stroke-width:0.2;stroke-linecap:butt;stroke-linejoin:round;stroke-miterlimit:4;stroke-dasharray:none;stroke-dashoffset:0;stroke-opacity:1"
       d="m 46.324417,3.3873226 h -2.80035 -39.78723 v 2.7998301 h -0.0129 V 70.694332 a 6.8272372,6.7418971 0 0 1 5.15679,5.09272 h 33.1468 a 3.9443766,3.5603447 0 0 1 -0.0315,-0.44649 3.9443766,3.5603447 0 0 1 3.94446,-3.5605 3.9443766,3.5603447 0 0 1 0.38396,0.0176 z m -2.62155,21.1604694 a 2.45,2.4499998 0 0 1 -2.44998,2.44998 2.45,2.4499998 0 0 1 -0.52916,-0.0579 v 42.58552 a 0.90000008,0.90000008 0 0 1 0.55035,-0.1881 0.90000008,0.90000008 0 0 1 0.89969,0.89969 0.90000008,0.90000008 0 0 1 -0.89969,0.9002 0.90000008,0.90000008 0 0 1 -0.55035,-0.18913 v 2.03915 H 9.524077 v -2.03812 a 0.90000008,0.90000008 0 0 1 -0.55035,0.1881 0.90000008,0.90000008 0 0 1 -0.89969,-0.9002 0.90000008,0.90000008 0 0 1 0.89969,-0.89969 0.90000008,0.90000008 0 0 1 0.55035,0.18914 v -14.33916 h -2.80034 v -9.79992 h 2.80034 V 9.6489627 a 0.90000008,0.90000008 0 0 1 -0.55035,0.1881 0.90000008,0.90000008 0 0 1 -0.89969,-0.89969 0.90000008,0.90000008 0 0 1 0.89969,-0.9002 0.90000008,0.90000008 0 0 1 0.55035,0.18913 v -2.03915 h 31.19965 v 2.03812 a 0.9,0.9 0 0 1 0.55035,-0.1881 0.9,0.9 0 0 1 0.89969,0.8816 0.9,0.9 0 0 1 0,0.0186 0.9,0.9 0 0 1 -0.89969,0.89968 0.9,0.9 0 0 1 -0.55035,-0.18913 V 22.155682 a 2.45,2.4499998 0 0 1 0.52916,-0.0579 2.45,2.4499998 0 0 1 2.44998,2.44998 z" />
    <path
       id="rect815-7-8-0-6-1-3-1-3-3"
       style="opacity:1;fill:none;fill-opacity:1;fill-rule:evenodd;stroke:#ff00ff;stroke-width:0.2;stroke-linecap:butt;stroke-linejoin:round;stroke-miterlimit:4;stroke-dasharray:none;stroke-dashoffset:0;stroke-opacity:1"
       d="m 88.904447,148.1868 h -2.80035 -39.78723 v 2.79983 h -0.0129 v 64.50719 a 6.8272372,6.7418971 0 0 1 5.15679,5.09272 h 33.1468 a 3.9443766,3.5603447 0 0 1 -0.0315,-0.44649 3.9443766,3.5603447 0 0 1 3.94447,-3.5605 3.9443766,3.5603447 0 0 1 0.38396,0.0176 z m -2.62155,21.16048 a 2.45,2.4499998 0 0 1 -2.44997,2.44998 2.45,2.4499998 0 0 1 -0.52917,-0.0579 v 42.58552 a 0.90000008,0.90000008 0 0 1 0.55035,-0.1881 0.90000008,0.90000008 0 0 1 0.89969,0.89969 0.90000008,0.90000008 0 0 1 -0.89969,0.9002 0.90000008,0.90000008 0 0 1 -0.55035,-0.18913 v 2.03915 h -31.19965 v -2.03812 a 0.90000008,0.90000008 0 0 1 -0.55035,0.1881 0.90000008,0.90000008 0 0 1 -0.89969,-0.9002 0.90000008,0.90000008 0 0 1 0.89969,-0.89969 0.90000008,0.90000008 0 0 1 0.55035,0.18914 v -14.33916 h -2.80034 v -9.79992 h 2.80034 v -35.7384 a 0.90000008,0.90000008 0 0 1 -0.55035,0.1881 0.90000008,0.90000008 0 0 1 -0.89969,-0.89969 0.90000008,0.90000008 0 0 1 0.89969,-0.9002 0.90000008,0.90000008 0 0 1 0.55035,0.18913 v -2.03915 h 31.19965 v 2.03812 a 0.9,0.9 0 0 1 0.55035,-0.1881 0.9,0.9 0 0 1 0.89969,0.8816 0.9,0.9 0 0 1 0,0.0186 0.9,0.9 0 0 1 -0.89969,0.89968 0.9,0.9 0 0 1 -0.55035,-0.18913 v 12.50777 a 2.45,2.4499998 0 0 1 0.52917,-0.0579 2.45,2.4499998 0 0 1 2.44997,2.44998 z" />
    <path
       id="rect815-7-8-0-6-1-3-1-7-2"
       style="opacity:1;fill:none;fill-opacity:1;fill-rule:evenodd;stroke:#ff00ff;stroke-width:0.2;stroke-linecap:butt;stroke-linejoin:round;stroke-miterlimit:4;stroke-dasharray:none;stroke-dashoffset:0;stroke-opacity:1"
       d="m 88.916857,75.787051 h -2.80035 -39.78723 v 2.79983 h -0.0129 v 64.507199 a 6.8272372,6.7418971 0 0 1 5.15679,5.09272 h 33.1468 a 3.9443766,3.5603447 0 0 1 -0.0315,-0.44649 3.9443766,3.5603447 0 0 1 3.94446,-3.5605 3.9443766,3.5603447 0 0 1 0.38396,0.0176 z m -2.62155,21.16047 a 2.45,2.4499998 0 0 1 -2.44998,2.44998 2.45,2.4499998 0 0 1 -0.52916,-0.0579 v 42.585539 a 0.90000008,0.90000008 0 0 1 0.55035,-0.1881 0.90000008,0.90000008 0 0 1 0.89969,0.89969 0.90000008,0.90000008 0 0 1 -0.89969,0.9002 0.90000008,0.90000008 0 0 1 -0.55035,-0.18913 v 2.03915 h -31.19965 v -2.03812 a 0.90000008,0.90000008 0 0 1 -0.55035,0.1881 0.90000008,0.90000008 0 0 1 -0.89969,-0.9002 0.90000008,0.90000008 0 0 1 0.89969,-0.89969 0.90000008,0.90000008 0 0 1 0.55035,0.18914 v -14.33916 h -2.80034 v -9.79992 h 2.80034 V 82.048691 a 0.90000008,0.90000008 0 0 1 -0.55035,0.1881 0.90000008,0.90000008 0 0 1 -0.89969,-0.89969 0.90000008,0.90000008 0 0 1 0.89969,-0.9002 0.90000008,0.90000008 0 0 1 0.55035,0.18913 v -2.03915 h 31.19965 v 2.03812 a 0.9,0.9 0 0 1 0.55035,-0.1881 0.9,0.9 0 0 1 0.89969,0.8816 0.9,0.9 0 0 1 0,0.0186 0.9,0.9 0 0 1 -0.89969,0.89968 0.9,0.9 0 0 1 -0.55035,-0.18913 v 12.50776 a 2.45,2.4499998 0 0 1 0.52916,-0.0579 2.45,2.4499998 0 0 1 2.44998,2.44998 z" />
    <path
       id="rect815-7-8-0-6-1-3-1-6-1"
       style="opacity:1;fill:none;fill-opacity:1;fill-rule:evenodd;stroke:#ff00ff;stroke-width:0.2;stroke-linecap:butt;stroke-linejoin:round;stroke-miterlimit:4;stroke-dasharray:none;stroke-dashoffset:0;stroke-opacity:1"
       d="m 88.911997,3.3873226 h -2.80035 -39.78723 v 2.799831 h -0.0129 V 70.694331 a 6.8272372,6.7418971 0 0 1 5.15679,5.09272 h 33.1468 a 3.9443766,3.5603447 0 0 1 -0.0315,-0.44649 3.9443766,3.5603447 0 0 1 3.94446,-3.5605 3.9443766,3.5603447 0 0 1 0.38396,0.0176 z m -2.62155,21.1604694 a 2.45,2.4499998 0 0 1 -2.44998,2.44998 2.45,2.4499998 0 0 1 -0.52916,-0.0579 v 42.585519 a 0.90000008,0.90000008 0 0 1 0.55035,-0.1881 0.90000008,0.90000008 0 0 1 0.89969,0.89969 0.90000008,0.90000008 0 0 1 -0.89969,0.9002 0.90000008,0.90000008 0 0 1 -0.55035,-0.18913 v 2.03915 h -31.19965 v -2.03812 a 0.90000008,0.90000008 0 0 1 -0.55035,0.1881 0.90000008,0.90000008 0 0 1 -0.89969,-0.9002 0.90000008,0.90000008 0 0 1 0.89969,-0.89969 0.90000008,0.90000008 0 0 1 0.55035,0.18914 v -14.33916 h -2.80034 v -9.799919 h 2.80034 V 9.6489626 a 0.90000008,0.90000008 0 0 1 -0.55035,0.1881 0.90000008,0.90000008 0 0 1 -0.89969,-0.89969 0.90000008,0.90000008 0 0 1 0.89969,-0.900199 0.90000008,0.90000008 0 0 1 0.55035,0.18913 v -2.03915 h 31.19965 v 2.03812 a 0.9,0.9 0 0 1 0.55035,-0.1881 0.9,0.9 0 0 1 0.89969,0.881599 0.9,0.9 0 0 1 0,0.0186 0.9,0.9 0 0 1 -0.89969,0.899681 0.9,0.9 0 0 1 -0.55035,-0.18913 V 22.155683 a 2.45,2.4499998 0 0 1 0.52916,-0.0579 2.45,2.4499998 0 0 1 2.44998,2.44998 z" />
    <path
       id="rect815-7-8-0-6-1-3-1-3-6"
       style="opacity:1;fill:none;fill-opacity:1;fill-rule:evenodd;stroke:#ff00ff;stroke-width:0.2;stroke-linecap:butt;stroke-linejoin:round;stroke-miterlimit:4;stroke-dasharray:none;stroke-dashoffset:0;stroke-opacity:1"
       d="m 131.49202,148.18681 h -2.80035 -39.787223 v 2.79983 h -0.0129 v 64.50718 a 6.8272372,6.7418971 0 0 1 5.15679,5.09272 h 33.146793 a 3.9443766,3.5603447 0 0 1 -0.0315,-0.44649 3.9443766,3.5603447 0 0 1 3.94448,-3.5605 3.9443766,3.5603447 0 0 1 0.38395,0.0176 z m -2.62155,21.16047 a 2.45,2.4499998 0 0 1 -2.44997,2.44998 2.45,2.4499998 0 0 1 -0.52917,-0.0579 v 42.58552 a 0.90000008,0.90000008 0 0 1 0.55035,-0.1881 0.90000008,0.90000008 0 0 1 0.89969,0.89969 0.90000008,0.90000008 0 0 1 -0.89969,0.9002 0.90000008,0.90000008 0 0 1 -0.55035,-0.18913 v 2.03915 H 94.691687 v -2.03812 a 0.90000008,0.90000008 0 0 1 -0.55035,0.1881 0.90000008,0.90000008 0 0 1 -0.89969,-0.9002 0.90000008,0.90000008 0 0 1 0.89969,-0.89969 0.90000008,0.90000008 0 0 1 0.55035,0.18914 v -14.33916 h -2.80034 v -9.79992 h 2.80034 v -35.73839 a 0.90000008,0.90000008 0 0 1 -0.55035,0.1881 0.90000008,0.90000008 0 0 1 -0.89969,-0.89969 0.90000008,0.90000008 0 0 1 0.89969,-0.9002 0.90000008,0.90000008 0 0 1 0.55035,0.18913 v -2.03915 h 31.199643 v 2.03812 a 0.9,0.9 0 0 1 0.55035,-0.1881 0.9,0.9 0 0 1 0.89969,0.8816 0.9,0.9 0 0 1 0,0.0186 0.9,0.9 0 0 1 -0.89969,0.89968 0.9,0.9 0 0 1 -0.55035,-0.18913 v 12.50776 a 2.45,2.4499998 0 0 1 0.52917,-0.0579 2.45,2.4499998 0 0 1 2.44997,2.44998 z" />
    <path
       id="rect815-7-8-0-6-1-3-1-7-24"
       style="opacity:1;fill:none;fill-opacity:1;fill-rule:evenodd;stroke:#ff00ff;stroke-width:0.2;stroke-linecap:butt;stroke-linejoin:round;stroke-miterlimit:4;stroke-dasharray:none;stroke-dashoffset:0;stroke-opacity:1"
       d="m 131.50443,75.787053 h -2.80035 -39.787223 v 2.799831 h -0.0129 v 64.507206 a 6.8272372,6.7418971 0 0 1 5.15679,5.09272 h 33.146793 a 3.9443766,3.5603447 0 0 1 -0.0315,-0.44649 3.9443766,3.5603447 0 0 1 3.94446,-3.5605 3.9443766,3.5603447 0 0 1 0.38396,0.0176 z m -2.62155,21.160475 a 2.45,2.4499998 0 0 1 -2.44998,2.44998 2.45,2.4499998 0 0 1 -0.52916,-0.0579 v 42.585543 a 0.90000008,0.90000008 0 0 1 0.55035,-0.1881 0.90000008,0.90000008 0 0 1 0.89969,0.89969 0.90000008,0.90000008 0 0 1 -0.89969,0.9002 0.90000008,0.90000008 0 0 1 -0.55035,-0.18913 v 2.03915 H 94.704097 v -2.03812 a 0.90000008,0.90000008 0 0 1 -0.55035,0.1881 0.90000008,0.90000008 0 0 1 -0.89969,-0.9002 0.90000008,0.90000008 0 0 1 0.89969,-0.89969 0.90000008,0.90000008 0 0 1 0.55035,0.18914 v -14.33916 h -2.80034 v -9.79992 h 2.80034 V 82.048693 a 0.90000008,0.90000008 0 0 1 -0.55035,0.188101 0.90000008,0.90000008 0 0 1 -0.89969,-0.899691 0.90000008,0.90000008 0 0 1 0.89969,-0.900201 0.90000008,0.90000008 0 0 1 0.55035,0.189132 v -2.039149 h 31.199643 v 2.038117 a 0.9,0.9 0 0 1 0.55035,-0.1881 0.9,0.9 0 0 1 0.89969,0.881602 0.9,0.9 0 0 1 0,0.0186 0.9,0.9 0 0 1 -0.89969,0.899679 0.9,0.9 0 0 1 -0.55035,-0.189129 v 12.507759 a 2.45,2.4499998 0 0 1 0.52916,-0.0579 2.45,2.4499998 0 0 1 2.44998,2.449985 z" />
    <path
       id="rect815-7-8-0-6-1-3-1-6-5"
       style="opacity:1;fill:none;fill-opacity:1;fill-rule:evenodd;stroke:#ff00ff;stroke-width:0.2;stroke-linecap:butt;stroke-linejoin:round;stroke-miterlimit:4;stroke-dasharray:none;stroke-dashoffset:0;stroke-opacity:1"
       d="m 131.49957,3.3873226 h -2.80035 -39.787223 v 2.7998302 h -0.0129 V 70.694332 a 6.8272372,6.7418971 0 0 1 5.15679,5.092721 h 33.146793 a 3.9443766,3.5603447 0 0 1 -0.0315,-0.446489 3.9443766,3.5603447 0 0 1 3.94446,-3.560502 3.9443766,3.5603447 0 0 1 0.38396,0.0176 z m -2.62155,21.1604694 a 2.45,2.4499998 0 0 1 -2.44998,2.44998 2.45,2.4499998 0 0 1 -0.52915,-0.0579 v 42.58552 a 0.90000008,0.90000008 0 0 1 0.55034,-0.188101 0.90000008,0.90000008 0 0 1 0.89969,0.899692 0.90000008,0.90000008 0 0 1 -0.89969,0.9002 0.90000008,0.90000008 0 0 1 -0.55034,-0.189132 v 2.039152 H 94.699237 v -2.03812 a 0.90000008,0.90000008 0 0 1 -0.55035,0.1881 0.90000008,0.90000008 0 0 1 -0.89969,-0.9002 0.90000008,0.90000008 0 0 1 0.89969,-0.899692 0.90000008,0.90000008 0 0 1 0.55035,0.189141 v -14.33916 h -2.80034 v -9.799921 h 2.80034 V 9.6489625 a 0.90000008,0.90000008 0 0 1 -0.55035,0.1881 0.90000008,0.90000008 0 0 1 -0.89969,-0.89969 0.90000008,0.90000008 0 0 1 0.89969,-0.9002 0.90000008,0.90000008 0 0 1 0.55035,0.18913 V 6.1871528 h 31.199653 v 2.0381197 a 0.9,0.9 0 0 1 0.55034,-0.1881 0.9,0.9 0 0 1 0.89969,0.8816 0.9,0.9 0 0 1 0,0.0186 0.9,0.9 0 0 1 -0.89969,0.89968 0.9,0.9 0 0 1 -0.55034,-0.18913 V 22.155682 a 2.45,2.4499998 0 0 1 0.52915,-0.0579 2.45,2.4499998 0 0 1 2.44998,2.44998 z" />
    <path
       id="rect815-7-8-0-6-1-3-1-3-1"
       style="opacity:1;fill:none;fill-opacity:1;fill-rule:evenodd;stroke:#ff00ff;stroke-width:0.2;stroke-linecap:butt;stroke-linejoin:round;stroke-miterlimit:4;stroke-dasharray:none;stroke-dashoffset:0;stroke-opacity:1"
       d="M 48.140541,220.58654 H 45.340191 5.5529605 v 2.79983 h -0.0129 v 64.50717 a 6.8272372,6.7418971 0 0 1 5.1567905,5.09273 h 33.146801 a 3.9443766,3.5603447 0 0 1 -0.0315,-0.44649 3.9443766,3.5603447 0 0 1 3.944471,-3.5605 3.9443766,3.5603447 0 0 1 0.383958,0.0176 z m -2.62155,21.16047 a 2.45,2.4499998 0 0 1 -2.44997,2.44998 2.45,2.4499998 0 0 1 -0.52917,-0.0579 v 42.58552 a 0.90000008,0.90000008 0 0 1 0.55035,-0.18811 0.90000008,0.90000008 0 0 1 0.899691,0.8997 0.90000008,0.90000008 0 0 1 -0.899691,0.9002 0.90000008,0.90000008 0 0 1 -0.55035,-0.18913 v 2.03915 h -31.19965 v -2.03812 a 0.90000008,0.90000008 0 0 1 -0.55035,0.1881 0.90000008,0.90000008 0 0 1 -0.8996905,-0.9002 0.90000008,0.90000008 0 0 1 0.8996905,-0.89969 0.90000008,0.90000008 0 0 1 0.55035,0.18914 V 272.38649 H 8.5398605 v -9.79992 h 2.8003405 v -35.73839 a 0.90000008,0.90000008 0 0 1 -0.55035,0.1881 0.90000008,0.90000008 0 0 1 -0.8996905,-0.89969 0.90000008,0.90000008 0 0 1 0.8996905,-0.9002 0.90000008,0.90000008 0 0 1 0.55035,0.18913 v -2.03915 h 31.19965 v 2.03812 a 0.9,0.9 0 0 1 0.55035,-0.1881 0.9,0.9 0 0 1 0.899691,0.8816 0.9,0.9 0 0 1 0,0.0186 0.9,0.9 0 0 1 -0.899691,0.89968 0.9,0.9 0 0 1 -0.55035,-0.18913 v 12.50776 a 2.45,2.4499998 0 0 1 0.52917,-0.0579 2.45,2.4499998 0 0 1 2.44997,2.44998 z" />
    <path
       id="rect815-7-8-0-6-1-3-1-3-3-8"
       style="opacity:1;fill:none;fill-opacity:1;fill-rule:evenodd;stroke:#ff00ff;stroke-width:0.2;stroke-linecap:butt;stroke-linejoin:round;stroke-miterlimit:4;stroke-dasharray:none;stroke-dashoffset:0;stroke-opacity:1"
       d="m 90.728124,220.58654 h -2.80035 -39.787233 v 2.79983 h -0.01291 v 64.50719 a 6.8272372,6.7418971 0 0 1 5.15679,5.09272 h 33.146803 a 3.9443766,3.5603447 0 0 1 -0.0315,-0.44649 3.9443766,3.5603447 0 0 1 3.94447,-3.5605 3.9443766,3.5603447 0 0 1 0.38396,0.0176 z m -2.62155,21.16048 a 2.45,2.4499998 0 0 1 -2.44997,2.44998 2.45,2.4499998 0 0 1 -0.52917,-0.0579 v 42.58552 a 0.90000008,0.90000008 0 0 1 0.55035,-0.1881 0.90000008,0.90000008 0 0 1 0.89969,0.89969 0.90000008,0.90000008 0 0 1 -0.89969,0.9002 0.90000008,0.90000008 0 0 1 -0.55035,-0.18913 v 2.03915 H 53.927783 v -2.03812 a 0.90000008,0.90000008 0 0 1 -0.550352,0.1881 0.90000008,0.90000008 0 0 1 -0.899689,-0.9002 0.90000008,0.90000008 0 0 1 0.899689,-0.89969 0.90000008,0.90000008 0 0 1 0.550352,0.18914 V 272.3865 h -2.800342 v -9.79992 h 2.800342 v -35.7384 a 0.90000008,0.90000008 0 0 1 -0.550352,0.1881 0.90000008,0.90000008 0 0 1 -0.899689,-0.89969 0.90000008,0.90000008 0 0 1 0.899689,-0.9002 0.90000008,0.90000008 0 0 1 0.550352,0.18913 v -2.03915 h 31.199651 v 2.03812 a 0.9,0.9 0 0 1 0.55035,-0.1881 0.9,0.9 0 0 1 0.89969,0.8816 0.9,0.9 0 0 1 0,0.0186 0.9,0.9 0 0 1 -0.89969,0.89968 0.9,0.9 0 0 1 -0.55035,-0.18913 v 12.50777 a 2.45,2.4499998 0 0 1 0.52917,-0.0579 2.45,2.4499998 0 0 1 2.44997,2.44998 z" />
    <path
       id="rect815-7-8-0-6-1-3-1-3-6-1"
       style="opacity:1;fill:none;fill-opacity:1;fill-rule:evenodd;stroke:#ff00ff;stroke-width:0.2;stroke-linecap:butt;stroke-linejoin:round;stroke-miterlimit:4;stroke-dasharray:none;stroke-dashoffset:0;stroke-opacity:1"
       d="m 133.31569,220.58655 h -2.80035 -39.787216 v 2.79983 h -0.0129 v 64.50718 a 6.8272372,6.7418971 0 0 1 5.15679,5.09272 H 129.0188 a 3.9443766,3.5603447 0 0 1 -0.0315,-0.44649 3.9443766,3.5603447 0 0 1 3.94448,-3.5605 3.9443766,3.5603447 0 0 1 0.38395,0.0176 z m -2.62155,21.16047 a 2.45,2.4499998 0 0 1 -2.44997,2.44998 2.45,2.4499998 0 0 1 -0.52917,-0.0579 v 42.58552 a 0.90000008,0.90000008 0 0 1 0.55035,-0.1881 0.90000008,0.90000008 0 0 1 0.89969,0.89969 0.90000008,0.90000008 0 0 1 -0.89969,0.9002 0.90000008,0.90000008 0 0 1 -0.55035,-0.18913 v 2.03915 H 96.515363 v -2.03812 a 0.90000008,0.90000008 0 0 1 -0.55035,0.1881 0.90000008,0.90000008 0 0 1 -0.89969,-0.9002 0.90000008,0.90000008 0 0 1 0.89969,-0.89969 0.90000008,0.90000008 0 0 1 0.55035,0.18914 V 272.3865 h -2.80034 v -9.79992 h 2.80034 v -35.73839 a 0.90000008,0.90000008 0 0 1 -0.55035,0.1881 0.90000008,0.90000008 0 0 1 -0.89969,-0.89969 0.90000008,0.90000008 0 0 1 0.89969,-0.9002 0.90000008,0.90000008 0 0 1 0.55035,0.18913 v -2.03915 H 127.715 v 2.03812 a 0.9,0.9 0 0 1 0.55035,-0.1881 0.9,0.9 0 0 1 0.89969,0.8816 0.9,0.9 0 0 1 0,0.0186 0.9,0.9 0 0 1 -0.89969,0.89968 0.9,0.9 0 0 1 -0.55035,-0.18913 v 12.50776 a 2.45,2.4499998 0 0 1 0.52917,-0.0579 2.45,2.4499998 0 0 1 2.44997,2.44998 z" />
    <path
       id="rect815-7-8-0-6-1-3-1-3-4"
       style="opacity:1;fill:none;fill-opacity:1;fill-rule:evenodd;stroke:#ff00ff;stroke-width:0.2;stroke-linecap:butt;stroke-linejoin:round;stroke-miterlimit:4;stroke-dasharray:none;stroke-dashoffset:0;stroke-opacity:1"
       d="m 175.90327,220.58655 h -2.80035 -39.78723 v 2.79983 h -0.0129 v 64.50718 a 6.8272372,6.7418971 0 0 1 5.15679,5.09272 h 33.1468 a 3.9443766,3.5603447 0 0 1 -0.0315,-0.44649 3.9443766,3.5603447 0 0 1 3.94447,-3.5605 3.9443766,3.5603447 0 0 1 0.38396,0.0176 z m -2.62155,21.16047 a 2.45,2.4499998 0 0 1 -2.44997,2.44998 2.45,2.4499998 0 0 1 -0.52917,-0.0579 v 42.58552 a 0.90000008,0.90000008 0 0 1 0.55035,-0.1881 0.90000008,0.90000008 0 0 1 0.89969,0.89969 0.90000008,0.90000008 0 0 1 -0.89969,0.9002 0.90000008,0.90000008 0 0 1 -0.55035,-0.18913 v 2.03915 h -31.19965 v -2.03812 a 0.90000008,0.90000008 0 0 1 -0.55035,0.1881 0.90000008,0.90000008 0 0 1 -0.89969,-0.9002 0.90000008,0.90000008 0 0 1 0.89969,-0.89969 0.90000008,0.90000008 0 0 1 0.55035,0.18914 V 272.3865 h -2.80034 v -9.79992 h 2.80034 v -35.73839 a 0.90000008,0.90000008 0 0 1 -0.55035,0.1881 0.90000008,0.90000008 0 0 1 -0.89969,-0.89969 0.90000008,0.90000008 0 0 1 0.89969,-0.9002 0.90000008,0.90000008 0 0 1 0.55035,0.18913 v -2.03915 h 31.19965 v 2.03812 a 0.9,0.9 0 0 1 0.55035,-0.1881 0.9,0.9 0 0 1 0.89969,0.8816 0.9,0.9 0 0 1 0,0.0186 0.9,0.9 0 0 1 -0.89969,0.89968 0.9,0.9 0 0 1 -0.55035,-0.18913 v 12.50776 a 2.45,2.4499998 0 0 1 0.52917,-0.0579 2.45,2.4499998 0 0 1 2.44997,2.44998 z" />
  </g>
</svg>
